<mxfile host="app.diagrams.net" modified="2024-06-21T09:33:16.996Z" agent="Mozilla/5.0 (Windows NT 10.0; Win64; x64) AppleWebKit/537.36 (KHTML, like Gecko) Chrome/122.0.0.0 Safari/537.36 Edg/122.0.0.0" version="24.5.5" etag="cDf2AklT-ISotPb6sWbV" type="github">
  <diagram name="페이지-1" id="U_cN65fJQkIvbNwPNjAQ">
    <mxGraphModel>
      <root>
        <mxCell id="0" />
        <mxCell id="1" parent="0" />
      </root>
    </mxGraphModel>
  </diagram>
</mxfile>
